<svg width="164" height="43" viewBox="0 0 164 43" fill="none" xmlns="http://www.w3.org/2000/svg">
<path d="M74.9998 35.0998C74.8998 34.9998 74.7998 34.9998 74.6998 34.8998C72.6998 34.4998 71.6998 33.4998 71.3998 31.4998C71.2998 30.8998 71.2998 30.2998 71.2998 29.7998C71.2998 24.1998 71.2998 18.6998 71.2998 13.0998C71.2998 12.2998 71.3998 11.5998 71.5998 10.7998C71.8998 9.1998 72.9998 8.2998 74.5998 7.9998C75.1998 7.8998 75.7998 7.7998 76.3998 7.7998C80.9998 7.7998 85.5998 7.7998 90.1998 7.7998C90.3998 7.7998 90.5998 7.7998 90.7998 7.7998C90.7998 9.4998 90.7998 11.1998 90.7998 12.9998C90.4998 12.9998 90.1998 12.9998 89.8998 12.9998C86.0998 12.9998 82.3998 12.9998 78.6998 12.9998C78.4998 12.9998 78.1998 12.9998 77.9998 12.9998C77.4998 12.9998 77.1998 13.2998 77.0998 13.7998C77.0998 13.8998 76.9998 13.9998 76.9998 14.0998C76.9998 15.4998 76.9998 16.8998 76.9998 18.3998C81.0998 18.3998 85.0998 18.3998 89.1998 18.3998C89.1998 20.1998 89.1998 21.8998 89.1998 23.6998C88.5998 23.6998 87.8998 23.6998 87.1998 23.6998C86.4998 23.6998 85.8998 23.6998 85.1998 23.6998C84.4998 23.6998 83.7998 23.6998 83.0998 23.6998C82.3998 23.6998 81.7998 23.6998 81.0998 23.6998C80.3998 23.6998 79.6998 23.6998 78.9998 23.6998C78.2998 23.6998 77.6998 23.6998 76.9998 23.6998C76.9998 23.9998 76.9998 24.1998 76.9998 24.4998C76.9998 25.6998 76.9998 26.8998 76.9998 28.0998C76.9998 28.2998 76.9998 28.5998 76.9998 28.7998C77.0998 29.4998 77.3998 29.7998 78.0998 29.7998C78.2998 29.7998 78.4998 29.7998 78.6998 29.7998C82.3998 29.7998 86.0998 29.7998 89.7998 29.7998H90.7998C90.7998 31.5998 90.8998 33.2998 90.7998 35.0998C85.3998 35.0998 80.1998 35.0998 74.9998 35.0998Z" fill="#2F43AD"/>
<path d="M133 35.0998C127.8 35.0998 123.7 35.0998 118.5 35.0998C118.4 34.9998 118.3 34.9998 118.2 34.8998C116.2 34.4998 115.2 33.4998 114.9 31.4998C114.8 30.8998 114.8 30.2998 114.8 29.7998C114.8 24.1998 114.8 18.6998 114.8 13.0998C114.8 12.2998 114.9 11.5998 115.1 10.7998C115.4 9.1998 116.5 8.2998 118.1 7.9998C118.7 7.8998 119.3 7.7998 119.9 7.7998C124.5 7.7998 129.1 7.7998 133.7 7.7998C133.9 7.7998 134.1 7.7998 134.3 7.7998C134.3 9.4998 134.3 11.1998 134.3 12.9998C134 12.9998 133.7 12.9998 133.4 12.9998C129.6 12.9998 125.9 12.9998 122.1 12.9998C121.9 12.9998 121.6 12.9998 121.4 12.9998C120.9 12.9998 120.6 13.2998 120.5 13.7998C120.5 13.8998 120.4 13.9998 120.4 14.0998C120.4 15.4998 120.4 16.8998 120.4 18.3998C124.5 18.3998 128.5 18.3998 132.6 18.3998C132.6 20.1998 132.6 21.8998 132.6 23.6998C132 23.6998 131.3 23.6998 130.6 23.6998C129.9 23.6998 129.3 23.6998 128.6 23.6998C127.9 23.6998 127.2 23.6998 126.5 23.6998C125.8 23.6998 125.2 23.6998 124.5 23.6998C123.8 23.6998 123.1 23.6998 122.4 23.6998C121.7 23.6998 121.1 23.6998 120.4 23.6998C120.4 23.9998 120.4 24.1998 120.4 24.4998C120.4 25.6998 120.4 26.8998 120.4 28.0998C120.4 28.2998 120.4 28.5998 120.4 28.7998C120.5 29.4998 120.8 29.7998 121.5 29.7998C121.7 29.7998 121.9 29.7998 122.1 29.7998C125.8 29.7998 129.5 29.7998 133.2 29.7998H134.2" fill="#2F43AD"/>
<path d="M143.1 23.4001C146 23.4001 148.7 23.4001 151.5 23.4001C151.5 23.2001 151.4 23.1001 151.4 22.9001C150.7 20.2001 150 17.5001 149.3 14.8001C149.2 14.2001 148.9 13.7001 148.7 13.2001C148.4 12.3001 146.4 12.2001 145.9 13.2001C145.8 13.6001 145.6 13.9001 145.5 14.3001C144.7 17.3001 143.9 20.3001 143.1 23.4001ZM134.5 35.1001C134.7 34.3001 134.9 33.5001 135.1 32.7001C136.7 26.9001 138.2 21.0001 139.8 15.2001C140.2 13.6001 140.7 12.1001 141.4 10.6001C142.4 8.60014 144 7.50014 146.2 7.40014C147.3 7.30014 148.5 7.30014 149.6 7.60014C151.2 7.90014 152.4 8.90014 153.2 10.4001C153.9 11.8001 154.4 13.2001 154.8 14.7001C156.6 21.3001 158.4 27.9001 160.2 34.5001C160.3 34.7001 160.3 34.9001 160.3 35.1001H154.7C154.1 32.9001 153.6 30.7001 153 28.5001C149.3 28.5001 145.6 28.5001 141.9 28.5001C141.3 30.7001 140.8 32.9001 140.2 35.1001C138.2 35.1001 136.3 35.1001 134.5 35.1001Z" fill="#2F43AD"/>
<path d="M100 35.0999C100 34.7999 100 34.4999 100 34.0999C100 27.3999 100 20.6999 100 14.0999C100 13.7999 100 13.4999 100 13.0999C97.3 13.0999 94.6 13.0999 92 13.0999C92 11.2999 92 9.5999 92 7.8999C99.2 7.8999 106.5 7.8999 113.7 7.8999C113.7 9.5999 113.7 11.2999 113.7 13.0999C111 13.0999 108.4 13.0999 105.7 13.0999C105.7 20.4999 105.7 27.7999 105.7 35.1999C103.7 35.0999 101.9 35.0999 100 35.0999Z" fill="#2F43AD"/>
<path d="M64.4001 35.0998C61.8001 31.7998 59.1001 28.3998 56.5001 25.0998C55.7001 23.9998 55.0001 22.8998 54.9001 21.3998C54.8001 20.2998 54.9001 19.2998 55.4001 18.2998C55.9001 17.1998 56.7001 16.2998 57.5001 15.2998C59.5001 12.7998 61.5001 10.3998 63.5001 7.8998L63.6001 7.7998C65.7001 7.7998 67.9001 7.7998 70.2001 7.7998C70.1001 7.9998 70.0001 8.1998 69.9001 8.2998C67.1001 11.7998 64.2001 15.3998 61.4001 18.8998C61.2001 19.1998 61.0001 19.3998 60.8001 19.6998C60.2001 20.6998 60.3001 21.0998 60.8001 21.7998C61.3001 22.4998 61.9001 23.1998 62.5001 23.8998C65.3001 27.4998 68.1001 30.9998 70.9001 34.5998C71.0001 34.6998 71.0001 34.7998 71.0001 34.9998C68.8001 35.0998 66.6001 35.0998 64.4001 35.0998Z" fill="#2F43AD"/>
<path d="M48 35.0999C48 26.3999 48 17.5999 48 8.8999C48 8.5999 48 8.2999 48 7.8999C49.9 7.8999 51.7 7.8999 53.6 7.8999C53.6 8.0999 53.7 8.2999 53.7 8.4999C53.7 17.1999 53.7 25.8999 53.7 34.5999C53.7 34.7999 53.7 34.9999 53.7 35.1999C51.7 35.0999 49.9 35.0999 48 35.0999Z" fill="#2F43AD"/>
<path d="M156.9 9.7H157C157.4 9.7 157.7 9.5 157.7 9.2C157.7 8.9 157.5 8.8 157.1 8.8H157L156.9 9.7ZM157.6 10.2L158.7 11.5H158L157 10.2V11.5H156.4V8.3H157C157.4 8.3 157.8 8.4 158 8.5C158.2 8.7 158.3 8.9 158.4 9.2C158.4 9.4 158.3 9.6 158.2 9.8C158 10 157.8 10.1 157.6 10.2ZM157.3 7.7C156.7 7.7 156.2 7.9 155.8 8.4C155.4 8.8 155.2 9.4 155.2 10C155.2 10.6 155.4 11.1 155.9 11.6C156.3 12 156.8 12.2 157.5 12.2C158.1 12.2 158.6 12 159 11.5C159.4 11.1 159.6 10.5 159.6 9.9C159.6 9.6 159.5 9.2 159.3 8.9C159.1 8.6 158.9 8.3 158.6 8.1C158.2 7.8 157.7 7.7 157.3 7.7ZM160.1 9.9C160.1 10.7 159.8 11.3 159.3 11.9C158.8 12.5 158.1 12.7 157.3 12.7C156.5 12.7 155.9 12.4 155.3 11.9C154.8 11.4 154.5 10.7 154.5 9.9C154.5 9.5 154.6 9.1 154.7 8.7C154.9 8.3 155.1 8 155.4 7.7C155.9 7.3 156.5 7 157.1 7C157.5 7 157.9 7.1 158.3 7.2C158.8 7.4 159.2 7.7 159.5 8.2C159.9 8.8 160.1 9.3 160.1 9.9Z" fill="#2F43AD"/>
<path d="M40.9625 23.0286C40.9625 23.0286 42.0949 13.1519 31.9036 15.2279C21.7124 17.3039 4.78998 28.0613 7.62087 11.2646C7.62087 11.2646 2.21072 16.7377 4.2238 23.2173C6.23688 29.634 13.0939 31.2067 21.7124 28.4387C30.3938 25.7966 36.1814 19.8831 40.9625 23.0286Z" fill="#2F43AD"/>
<path d="M16.8682 11.705C22.1526 15.7941 25.1093 12.7116 31.6518 11.5163C38.1943 10.384 40.6477 13.0261 40.6477 13.0261C38.0685 4.47055 29.1354 -1.12833 19.07 0.192752C7.62065 1.63965 -0.872027 11.3276 0.0716039 21.8334C0.7636 29.9486 6.86575 36.1765 14.9181 37.938C14.9181 37.938 16.2391 38.1267 16.1133 39.6994C15.8617 41.6496 15.1068 42.9707 15.1068 42.9707C25.6125 38.1896 25.8642 32.9682 25.8642 32.9682C25.8642 32.9682 25.9271 35.1071 24.4802 37.8751C31.9034 36.1136 38.1314 30.4518 40.5848 24.0352C39.767 23.5319 38.4459 23.6577 37.3765 23.7835C35.4892 24.0352 33.2245 25.6079 30.5823 26.929C28.1289 28.1871 25.298 29.5711 22.0897 30.5777C20.2653 31.1438 18.441 31.5842 16.8053 31.7729C9.50791 32.7166 4.28649 30.0115 2.52504 24.4755C0.26033 17.241 5.92211 11.2647 6.17375 11.0131C6.17375 11.0131 7.62065 9.37742 9.57082 8.37089C5.73339 18.4992 11.521 19.6315 11.521 19.6315C9.25628 16.9894 10.3257 11.768 14.7293 8.4967C19.1329 5.28836 24.3544 5.72872 26.1158 6.98689C21.9638 11.705 16.8682 11.705 16.8682 11.705Z" fill="#385DBE"/>
</svg>
